<svg xmlns="http://www.w3.org/2000/svg" width="60" height="60"><path fill="#28A1D3" d="M51.413 27H8.587c-1.476 0-2.677 1.524-2.677 3 0 1.477 1.201 3 2.677 3h42.826c1.478 0 2.677-1.523 2.677-3 0-1.476-1.199-3-2.677-3z"/><path fill="#28A1D3" d="M8.586 27.483c-.715 0-1.387.279-1.893.784a2.66 2.66 0 00-.783 1.894c0 .714.278 1.386.783 1.892l13.88 13.881a2.666 2.666 0 001.893.783c.715 0 1.387-.279 1.893-.783a2.683 2.683 0 000-3.787l-13.88-13.878a2.655 2.655 0 00-1.893-.786z"/><path fill="#28A1D3" d="M22.467 13.084a2.66 2.66 0 00-1.893.783l-13.88 13.88c-.506.505-.784 1.178-.784 1.893s.279 1.387.785 1.893c.504.506 1.177.784 1.892.784s1.387-.278 1.893-.784l13.88-13.878a2.683 2.683 0 000-3.786 2.657 2.657 0 00-1.893-.785z"/></svg>