<svg xmlns="http://www.w3.org/2000/svg" width="40" height="60"><g fill="#97EDFF"><path d="M20 58.537c-9.685 0-17.564-7.879-17.564-17.564 0-4.723 1.903-9.223 5.26-12.52V13.349c0-6.785 5.52-12.304 12.304-12.304s12.305 5.52 12.305 12.304v15.104a17.55 17.55 0 015.26 12.52C37.564 50.658 29.686 58.537 20 58.537zm0-52.492c-4.027 0-7.304 3.277-7.304 7.304v17.346l-.871.748a12.557 12.557 0 00-4.389 9.529c0 6.928 5.636 12.563 12.564 12.563s12.564-5.638 12.564-12.563c0-3.656-1.6-7.13-4.39-9.529l-.87-.748V13.349c.001-4.027-3.277-7.304-7.304-7.304z"/><path d="M17.5 16.937h5v18.022h-5z"/></g><path fill="#97EDFF" d="M20 48.279c-4.246 0-7.7-3.454-7.7-7.7 0-4.244 3.454-7.697 7.7-7.697 4.245 0 7.699 3.453 7.699 7.697 0 4.246-3.454 7.7-7.699 7.7zm0-10.397c-1.489 0-2.7 1.21-2.7 2.697 0 1.489 1.211 2.7 2.7 2.7a2.703 2.703 0 002.699-2.7A2.701 2.701 0 0020 37.882z"/></svg>