<?xml version="1.0" encoding="utf-8"?>
<!-- Generator: Adobe Illustrator 16.0.0, SVG Export Plug-In . SVG Version: 6.00 Build 0)  -->
<!DOCTYPE svg PUBLIC "-//W3C//DTD SVG 1.1//EN" "http://www.w3.org/Graphics/SVG/1.1/DTD/svg11.dtd">
<svg version="1.1" id="레이어_1" xmlns="http://www.w3.org/2000/svg" xmlns:xlink="http://www.w3.org/1999/xlink" x="0px"
	 y="0px" width="40px" height="40px" viewBox="0 0 40 40" enable-background="new 0 0 40 40" xml:space="preserve">
<circle fill="#F9FCFE" cx="20" cy="20" r="18"/>
<path fill="#666666" d="M20,39C9.523,39,1,30.477,1,20C1,9.523,9.523,1,20,1c10.477,0,19,8.523,19,19C39,30.477,30.477,39,20,39z
	 M20,3C10.626,3,3,10.626,3,20s7.626,17,17,17s17-7.626,17-17S29.374,3,20,3z"/>
<g enable-background="new    ">
	<path fill="#6C7C8B" d="M23.582,21.979c-1.017,0.252-2.649,0.378-4.899,0.378H8.267V19.75h2.959l-0.29-6.159h3.124l0.164,6.159
		h2.809l0.151-6.159h3.073l-0.265,6.134c1.276,0,2.396-0.093,3.363-0.277L23.582,21.979z M8.884,12.382V9.8h13.438v2.582H8.884z
		 M21.025,33.087c-2.738,0-4.797-0.426-6.178-1.278c-1.381-0.853-2.072-2.067-2.072-3.646c0-1.512,0.718-2.71,2.153-3.596
		c1.436-0.886,3.468-1.329,6.096-1.329c2.67,0,4.719,0.431,6.146,1.291c1.428,0.86,2.142,2.071,2.142,3.634
		c0,1.553-0.719,2.762-2.154,3.627C25.723,32.654,23.678,33.087,21.025,33.087z M21.025,25.82c-3.367,0-5.051,0.78-5.051,2.343
		c0,1.562,1.684,2.342,5.051,2.342c3.392,0,5.088-0.78,5.088-2.342C26.113,26.601,24.417,25.82,21.025,25.82z M22.158,18.83v-2.279
		h3.488v-1.234h-3.488v-2.292h3.488V8.768h3.124v14.27h-3.124V18.83H22.158z"/>
</g>
</svg>
