<?xml version="1.0" encoding="utf-8"?>
<!-- Generator: Adobe Illustrator 16.0.3, SVG Export Plug-In . SVG Version: 6.00 Build 0)  -->
<!DOCTYPE svg PUBLIC "-//W3C//DTD SVG 1.1//EN" "http://www.w3.org/Graphics/SVG/1.1/DTD/svg11.dtd" [
	<!ENTITY ns_extend "http://ns.adobe.com/Extensibility/1.0/">
	<!ENTITY ns_ai "http://ns.adobe.com/AdobeIllustrator/10.0/">
	<!ENTITY ns_graphs "http://ns.adobe.com/Graphs/1.0/">
	<!ENTITY ns_vars "http://ns.adobe.com/Variables/1.0/">
	<!ENTITY ns_imrep "http://ns.adobe.com/ImageReplacement/1.0/">
	<!ENTITY ns_sfw "http://ns.adobe.com/SaveForWeb/1.0/">
	<!ENTITY ns_custom "http://ns.adobe.com/GenericCustomNamespace/1.0/">
	<!ENTITY ns_adobe_xpath "http://ns.adobe.com/XPath/1.0/">
]>
<svg version="1.1" id="레이어_1" xmlns:x="&ns_extend;" xmlns:i="&ns_ai;" xmlns:graph="&ns_graphs;"
	 xmlns="http://www.w3.org/2000/svg" xmlns:xlink="http://www.w3.org/1999/xlink" x="0px" y="0px" width="40px" height="40px"
	 viewBox="0 0 40 40" enable-background="new 0 0 40 40" xml:space="preserve">
<metadata>
	<sfw  xmlns="&ns_sfw;">
		<slices></slices>
		<sliceSourceBounds  width="34.137" height="33.115" y="19.937" x="17.351" bottomLeftOrigin="true"></sliceSourceBounds>
	</sfw>
</metadata>
<path fill="#FFFFFF" d="M36.987,13.5v-1.228v-3.03c0-0.213-0.022-0.422-0.063-0.623c-0.042-0.201-0.103-0.395-0.182-0.58
	c-0.078-0.188-0.174-0.36-0.283-0.525c-0.111-0.166-0.239-0.317-0.38-0.459c-0.14-0.139-0.293-0.267-0.457-0.378
	c-0.165-0.111-0.34-0.205-0.525-0.285c-0.186-0.077-0.381-0.138-0.582-0.179c-0.201-0.042-0.408-0.064-0.621-0.064H31.59v1.988
	c0,1.689-1.368,3.061-3.06,3.061c-1.689,0-3.06-1.371-3.06-3.061V6.148H14.368v1.988c0,1.689-1.371,3.061-3.061,3.061
	c-1.691,0-3.06-1.371-3.06-3.061V6.148H5.947c-0.216,0-0.425,0.022-0.626,0.064C5.12,6.254,4.927,6.314,4.741,6.392
	c-0.185,0.08-0.362,0.174-0.525,0.285C4.05,6.788,3.898,6.916,3.758,7.055C3.618,7.196,3.49,7.348,3.379,7.514
	C3.27,7.679,3.174,7.852,3.094,8.039c-0.077,0.186-0.14,0.379-0.179,0.58C2.873,8.82,2.851,9.029,2.851,9.242v3.03V13.5H36.987z"/>
<path fill="#FFFFFF" d="M11.308,9.33c-0.845,0-1.53-0.686-1.53-1.53v-3.82c0-0.846,0.686-1.531,1.53-1.531s1.53,0.686,1.53,1.531
	V7.8C12.838,8.645,12.152,9.33,11.308,9.33z"/>
<path fill="#FFFFFF" d="M28.53,9.33C27.686,9.33,27,8.645,27,7.8v-3.82c0-0.846,0.686-1.531,1.53-1.531s1.53,0.686,1.53,1.531V7.8
	C30.061,8.645,29.375,9.33,28.53,9.33z"/>
<path fill="#FFFFFF" d="M2.851,15.132v3.203v3.03v3.032v3.029v3.03v2.013c0,0.213,0.022,0.42,0.064,0.621
	c0.039,0.201,0.102,0.396,0.179,0.582c0.08,0.186,0.176,0.36,0.285,0.525c0.111,0.164,0.239,0.317,0.379,0.459
	c0.141,0.139,0.292,0.267,0.458,0.376c0.163,0.111,0.341,0.207,0.525,0.287c0.186,0.078,0.379,0.138,0.58,0.18
	c0.201,0.039,0.41,0.063,0.626,0.063h3.492h3.494h3.492h3.494h3.492h3.492h3.495h3.494c0.213,0,0.42-0.024,0.621-0.063
	c0.201-0.042,0.396-0.102,0.582-0.18c0.186-0.08,0.36-0.176,0.525-0.287c0.164-0.109,0.317-0.237,0.457-0.376
	c0.141-0.142,0.269-0.295,0.38-0.459c0.109-0.165,0.205-0.34,0.283-0.525c0.079-0.186,0.14-0.381,0.182-0.582
	c0.041-0.201,0.063-0.408,0.063-0.621v-2.013v-3.03v-3.029v-3.032v-3.03v-3.203H2.851z M15.717,33.332h-3.524V21.893h3.524V33.332z
	 M21.42,33.332h-3.526V18.718h3.526V33.332z M27.122,33.332h-3.524V20.658h3.524V33.332z"/>
</svg>
