<?xml version="1.0" encoding="utf-8"?>
<!-- Generator: Adobe Illustrator 16.0.0, SVG Export Plug-In . SVG Version: 6.00 Build 0)  -->
<!DOCTYPE svg PUBLIC "-//W3C//DTD SVG 1.1//EN" "http://www.w3.org/Graphics/SVG/1.1/DTD/svg11.dtd">
<svg version="1.1" id="레이어_1" xmlns="http://www.w3.org/2000/svg" xmlns:xlink="http://www.w3.org/1999/xlink" x="0px"
	 y="0px" width="40px" height="40px" viewBox="0 0 40 40" enable-background="new 0 0 40 40" xml:space="preserve">
<path fill="#3F73A5" d="M34.061,15.286c0-7.777-6.269-14.083-14-14.083c-7.73,0-14,6.306-14,14.083c0,3.158,1.035,6.508,2.78,8.856
	H8.837l9.485,13.649c0.956,1.275,2.521,1.275,3.475,0l9.487-13.649H31.28C33.026,21.794,34.061,18.444,34.061,15.286z
	 M20.061,22.116c-3.75,0-6.79-3.058-6.79-6.83c0-3.773,3.04-6.831,6.79-6.831c3.748,0,6.789,3.058,6.789,6.831
	C26.85,19.058,23.809,22.116,20.061,22.116z"/>
</svg>
