<?xml version="1.0" encoding="utf-8"?>
<!-- Generator: Adobe Illustrator 16.0.0, SVG Export Plug-In . SVG Version: 6.00 Build 0)  -->
<!DOCTYPE svg PUBLIC "-//W3C//DTD SVG 1.1//EN" "http://www.w3.org/Graphics/SVG/1.1/DTD/svg11.dtd">
<svg version="1.1" id="레이어_1" xmlns="http://www.w3.org/2000/svg" xmlns:xlink="http://www.w3.org/1999/xlink" x="0px"
	 y="0px" width="100px" height="100px" viewBox="0 0 100 100" enable-background="new 0 0 100 100" xml:space="preserve">
<g>
	<g>
		<g>
			<g>
				<g>
					<g>
						<g>
							<path fill="#F9F9F9" d="M21.071,3.195c-0.679-0.02-1.397,0.059-2.131,0.234C13.024,4.845,8.598,8.104,5.786,13.114
								c-4.76,8.492-3.898,19.8-1.509,27.554C7.662,51.594,15.32,62.679,27.036,73.606l0.357,0.307
								C43,89.269,60.791,97.748,75.252,96.726c6.345-0.45,15.902-4.551,20.278-10.391c1.803-2.404,2.447-4.723,1.976-7.081
								c-0.743-3.738-4.56-6.314-8.597-9.045c-0.88-0.594-1.748-1.182-2.571-1.771l-4.541-3.24
								c-1.868-1.324-3.484-1.988-4.939-2.034c-2.278-0.068-4.491,1.475-7.047,3.257c-3.621,2.522-8.219,5.711-14.571,4.944
								c-6.482-0.787-11.04-5.099-15.058-8.899c-0.903-0.853-1.785-1.69-2.669-2.456c-3.767-3.259-10.07-8.721-10.291-16.28
								c-0.177-5.719,3.359-9.771,6.48-13.347c4.448-5.104,5.655-7.09,2.916-11.142l-3.99-5.894
								C29.48,8.656,25.916,3.346,21.071,3.195z"/>
						</g>
					</g>
				</g>
			</g>
		</g>
	</g>
</g>
</svg>
