<?xml version="1.0" encoding="utf-8"?>
<!-- Generator: Adobe Illustrator 16.0.0, SVG Export Plug-In . SVG Version: 6.00 Build 0)  -->
<!DOCTYPE svg PUBLIC "-//W3C//DTD SVG 1.1//EN" "http://www.w3.org/Graphics/SVG/1.1/DTD/svg11.dtd">
<svg version="1.1" id="레이어_1" xmlns="http://www.w3.org/2000/svg" xmlns:xlink="http://www.w3.org/1999/xlink" x="0px"
	 y="0px" width="40px" height="40px" viewBox="0 0 40 40" enable-background="new 0 0 40 40" xml:space="preserve">
<path fill="none" stroke="#737A8B" stroke-width="3" stroke-linecap="round" stroke-linejoin="round" d="M20,20"/>
<path fill="#737A8B" d="M38.945,36.457L27.284,25.56c2.19-2.683,3.383-6.008,3.383-9.519c0-4.032-1.57-7.823-4.421-10.674
	s-6.641-4.42-10.672-4.42S7.753,2.517,4.902,5.367c-2.851,2.851-4.421,6.642-4.421,10.674c0,4.031,1.57,7.821,4.42,10.671
	c2.851,2.852,6.641,4.422,10.672,4.422c3.543,0,6.898-1.215,9.595-3.444l11.728,10.959c0.289,0.271,0.657,0.404,1.024,0.404
	c0.4,0,0.801-0.16,1.096-0.476C39.582,37.972,39.551,37.022,38.945,36.457z M7.023,24.591c-2.284-2.283-3.542-5.319-3.542-8.55
	c0-3.231,1.258-6.269,3.542-8.553c2.284-2.283,5.321-3.541,8.551-3.541s6.267,1.258,8.551,3.541
	c2.284,2.284,3.542,5.321,3.542,8.553c0,3.23-1.258,6.267-3.542,8.55c-2.284,2.284-5.321,3.543-8.551,3.543
	S9.308,26.875,7.023,24.591z"/>
</svg>
