<svg xmlns="http://www.w3.org/2000/svg" width="200" height="200"><path fill="#FFF" d="M150.632 42.539V24.18c0-6.172-5.006-11.178-11.18-11.178H61.989c-6.174 0-11.176 5.006-11.176 11.178v6.156c-.006.069-.021.134-.021.204V179.643c0 6.177 5.003 11.178 11.175 11.178h77.465c6.172 0 11.18-5.001 11.18-11.178v-20.104l-.063.001V42.535l.083.004zm-4.582.124v114.231H55.293V42.663h90.757z"/><g fill="#FFF"><path d="M96.813 89.629l-3.957 1.345 2.616 3.603-2.016 1.45-2.583-3.605-2.649 3.605-2.012-1.45 2.651-3.641-3.925-1.235.741-2.334 3.961 1.237V84.54h2.472v4.099l3.958-1.342zM96.267 107.21H85.485a1.5 1.5 0 110-3h10.781a1.5 1.5 0 01.001 3z"/></g><g fill="#FFF"><path d="M76.487 89.629l-3.956 1.345 2.615 3.603-2.016 1.45-2.582-3.605-2.651 3.605-2.011-1.45 2.65-3.641-3.926-1.235.744-2.334 3.959 1.237V84.54h2.473v4.099l3.957-1.342zM75.94 107.21H65.159a1.5 1.5 0 110-3H75.94a1.5 1.5 0 110 3z"/></g><g fill="#FFF"><path d="M117.138 89.629l-3.958 1.345 2.615 3.603-2.015 1.45-2.579-3.605-2.653 3.605-2.013-1.45 2.652-3.641-3.923-1.235.741-2.334 3.958 1.237V84.54h2.475v4.099l3.958-1.342zM116.59 107.21h-10.778a1.5 1.5 0 110-3h10.778a1.5 1.5 0 110 3z"/></g><g fill="#FFF"><path d="M137.465 89.629l-3.958 1.345 2.615 3.603-2.014 1.45-2.579-3.605-2.654 3.605-2.013-1.45 2.653-3.641-3.924-1.235.741-2.334 3.958 1.237V84.54h2.476v4.099l3.96-1.342zM137.222 107.21h-10.779a1.5 1.5 0 110-3h10.779a1.5 1.5 0 110 3z"/></g><path fill="#166BCF" d="M111.566 176.869H89.858a3.001 3.001 0 010-6h21.708a3 3 0 010 6zM105.174 31.208h-8.921a3 3 0 010-6h8.921a3 3 0 110 6z"/></svg>