<svg xmlns="http://www.w3.org/2000/svg" width="200" height="200"><g fill="#FFF"><path d="M150.522 106.226c-14.969-22.119-37.051-26.253-37.984-26.419a3.501 3.501 0 00-.588-.051h-.852c9.936-6.369 16.568-17.733 16.568-30.671 0-19.886-15.678-36.063-34.947-36.063-19.277 0-34.96 16.178-34.96 36.063 0 12.938 6.635 24.302 16.574 30.671H72.54c-.22 0-.438.021-.653.064-.452.09-45.339 9.525-50.202 60.52a3.15 3.15 0 00-.016.321v42.528a3.376 3.376 0 006.75 0v-42.365c4.298-44.166 40.504-53.434 44.476-54.318h38.718c2.392.519 20.83 5.047 33.32 23.502a3.374 3.374 0 105.589-3.782zM64.51 49.085c0-16.163 12.655-29.313 28.21-29.313 15.548 0 28.197 13.15 28.197 29.313 0 16.173-12.649 29.332-28.197 29.332-15.555 0-28.21-13.159-28.21-29.332z"/><path d="M52.136 135.496a3.376 3.376 0 00-3.375 3.375v44.182a3.376 3.376 0 006.75 0v-44.182a3.376 3.376 0 00-3.375-3.375z"/></g><path fill="#FFF" d="M175.335 185.609h-56.497a4.592 4.592 0 01-4.587-4.586v-69.41a4.593 4.593 0 014.587-4.588h56.497a4.593 4.593 0 014.587 4.588v69.41a4.592 4.592 0 01-4.587 4.586z"/><path fill="#166BCF" d="M152.376 136.609h-22.281a3.001 3.001 0 010-6h22.281a3.001 3.001 0 010 6zM164.077 149.409h-33.982a3 3 0 010-6h33.982a3 3 0 010 6zM164.077 162.045h-33.982a3.001 3.001 0 010-6h33.982a3.001 3.001 0 010 6z"/></svg>