<?xml version="1.0" encoding="utf-8"?>
<!-- Generator: Adobe Illustrator 16.0.0, SVG Export Plug-In . SVG Version: 6.00 Build 0)  -->
<!DOCTYPE svg PUBLIC "-//W3C//DTD SVG 1.1//EN" "http://www.w3.org/Graphics/SVG/1.1/DTD/svg11.dtd">
<svg version="1.1" id="레이어_1" xmlns="http://www.w3.org/2000/svg" xmlns:xlink="http://www.w3.org/1999/xlink" x="0px"
	 y="0px" width="40px" height="40px" viewBox="0 0 40 40" enable-background="new 0 0 40 40" xml:space="preserve">
<circle fill="#FFF2F2" cx="20" cy="20" r="18"/>
<path fill="#FD8787" d="M20,39C9.523,39,1,30.477,1,20C1,9.523,9.523,1,20,1c10.477,0,19,8.523,19,19C39,30.477,30.477,39,20,39z
	 M20,3C10.626,3,3,10.626,3,20s7.626,17,17,17s17-7.626,17-17S29.374,3,20,3z"/>
<g enable-background="new    ">
	<path fill="#EB7676" d="M15.093,19.732c-1.889,0-3.419-0.533-4.591-1.6s-1.757-2.447-1.757-4.144c0-1.713,0.587-3.104,1.763-4.175
		c1.175-1.071,2.704-1.606,4.584-1.606c1.914,0,3.459,0.542,4.635,1.625c1.175,1.083,1.763,2.469,1.763,4.156
		c0,1.68-0.591,3.057-1.77,4.131C18.542,19.195,16.999,19.732,15.093,19.732z M15.093,10.841c-1.042,0-1.843,0.276-2.406,0.831
		c-0.563,0.554-0.844,1.327-0.844,2.317c0,0.94,0.292,1.702,0.875,2.286c0.583,0.583,1.375,0.875,2.374,0.875
		c0.991,0,1.78-0.287,2.368-0.862c0.587-0.575,0.881-1.342,0.881-2.299c0-0.924-0.294-1.68-0.881-2.267
		C16.873,11.135,16.084,10.841,15.093,10.841z M12.7,31.709v-6.587h12.606v-1.436H12.7v-2.657h15.705v6.474H15.824v1.549h13.199
		v2.657H12.7z M25.307,20.072V7.768h3.099v12.305H25.307z"/>
</g>
</svg>
