<?xml version="1.0" encoding="utf-8"?>
<!-- Generator: Adobe Illustrator 16.0.0, SVG Export Plug-In . SVG Version: 6.00 Build 0)  -->
<!DOCTYPE svg PUBLIC "-//W3C//DTD SVG 1.1//EN" "http://www.w3.org/Graphics/SVG/1.1/DTD/svg11.dtd">
<svg version="1.1" id="레이어_1" xmlns="http://www.w3.org/2000/svg" xmlns:xlink="http://www.w3.org/1999/xlink" x="0px"
	 y="0px" width="40px" height="40px" viewBox="0 0 40 40" enable-background="new 0 0 40 40" xml:space="preserve">
<g>
	<g>
		<g>
			<g>
				<g>
					<g>
						<g>
							<path fill="#53B01A" d="M8.466,1.13c-0.27-0.008-0.557,0.024-0.85,0.095C5.258,1.796,3.494,3.109,2.373,5.129
								c-1.898,3.424-1.556,7.983-0.602,11.108c1.35,4.406,4.402,8.872,9.073,13.279l0.143,0.123
								c6.224,6.191,13.316,9.61,19.08,9.198c2.531-0.182,6.342-1.836,8.086-4.189c0.719-0.97,0.977-1.903,0.788-2.855
								c-0.297-1.507-1.817-2.548-3.428-3.646c-0.352-0.238-0.696-0.477-1.025-0.716l-1.811-1.306
								c-0.745-0.532-1.388-0.8-1.971-0.819c-0.907-0.027-1.789,0.594-2.807,1.312c-1.444,1.019-3.277,2.304-5.812,1.994
								c-2.585-0.316-4.401-2.054-6.002-3.587c-0.36-0.345-0.711-0.682-1.063-0.99c-1.502-1.314-4.016-3.515-4.104-6.563
								c-0.07-2.306,1.34-3.94,2.584-5.381c1.773-2.057,2.254-2.859,1.163-4.492l-1.591-2.376C11.819,3.332,10.398,1.191,8.466,1.13
								z"/>
						</g>
					</g>
				</g>
			</g>
		</g>
	</g>
</g>
</svg>
