<svg xmlns="http://www.w3.org/2000/svg" width="36" height="60"><g fill="#97EDFF"><path d="M17.999 59.02C8.404 59.02.598 51.213.598 41.618c0-4.796 1.982-9.359 5.465-12.647V12.917C6.063 6.335 11.417.98 18 .98c6.583 0 11.938 5.354 11.938 11.937V28.97a17.392 17.392 0 015.465 12.646c-.001 9.597-7.807 17.404-17.404 17.404zm0-54.539c-4.652 0-8.437 3.785-8.437 8.437v17.635l-.609.524a13.888 13.888 0 00-4.855 10.541c0 7.666 6.236 13.902 13.901 13.902 7.666 0 13.903-6.236 13.903-13.902a13.9 13.9 0 00-4.856-10.542l-.608-.523V12.917c0-4.651-3.786-8.436-8.439-8.436z"/><path d="M16.249 16.645h3.5v18.724h-3.5z"/><path d="M18 48.361c-3.944 0-7.152-3.209-7.152-7.152 0-3.942 3.208-7.15 7.152-7.15 3.943 0 7.152 3.208 7.152 7.15 0 3.943-3.209 7.152-7.152 7.152zm0-10.802a3.655 3.655 0 00-3.652 3.65c0 2.014 1.639 3.652 3.652 3.652s3.652-1.639 3.652-3.652A3.655 3.655 0 0018 37.559z"/></g></svg>