<?xml version="1.0" encoding="utf-8"?>
<!-- Generator: Adobe Illustrator 16.0.0, SVG Export Plug-In . SVG Version: 6.00 Build 0)  -->
<!DOCTYPE svg PUBLIC "-//W3C//DTD SVG 1.1//EN" "http://www.w3.org/Graphics/SVG/1.1/DTD/svg11.dtd">
<svg version="1.1" id="레이어_1" xmlns="http://www.w3.org/2000/svg" xmlns:xlink="http://www.w3.org/1999/xlink" x="0px"
	 y="0px" width="40px" height="40px" viewBox="0 0 40 40" enable-background="new 0 0 40 40" xml:space="preserve">
<circle fill="#EFF9FF" cx="20" cy="20" r="18"/>
<path fill="#6EB2E3" d="M20,39C9.523,39,1,30.477,1,20C1,9.523,9.523,1,20,1c10.477,0,19,8.523,19,19C39,30.477,30.477,39,20,39z
	 M20,3C10.626,3,3,10.626,3,20s7.626,17,17,17s17-7.626,17-17S29.374,3,20,3z"/>
<g enable-background="new    ">
	<path fill="#5BA1D5" d="M8.728,29.342V26.71H18.4v-3.968h-6.347V10.438h15.995v2.607H15.227v2.191h12.129v2.607H15.227v2.292
		h13.212v2.606h-6.864v3.968h9.697v2.632H8.728z"/>
</g>
</svg>
