<?xml version="1.0" encoding="utf-8"?>
<!-- Generator: Adobe Illustrator 16.0.3, SVG Export Plug-In . SVG Version: 6.00 Build 0)  -->
<!DOCTYPE svg PUBLIC "-//W3C//DTD SVG 1.1//EN" "http://www.w3.org/Graphics/SVG/1.1/DTD/svg11.dtd" [
	<!ENTITY ns_extend "http://ns.adobe.com/Extensibility/1.0/">
	<!ENTITY ns_ai "http://ns.adobe.com/AdobeIllustrator/10.0/">
	<!ENTITY ns_graphs "http://ns.adobe.com/Graphs/1.0/">
	<!ENTITY ns_vars "http://ns.adobe.com/Variables/1.0/">
	<!ENTITY ns_imrep "http://ns.adobe.com/ImageReplacement/1.0/">
	<!ENTITY ns_sfw "http://ns.adobe.com/SaveForWeb/1.0/">
	<!ENTITY ns_custom "http://ns.adobe.com/GenericCustomNamespace/1.0/">
	<!ENTITY ns_adobe_xpath "http://ns.adobe.com/XPath/1.0/">
]>
<svg version="1.1" id="Layer_1" xmlns:x="&ns_extend;" xmlns:i="&ns_ai;" xmlns:graph="&ns_graphs;"
	 xmlns="http://www.w3.org/2000/svg" xmlns:xlink="http://www.w3.org/1999/xlink" x="0px" y="0px" width="200px" height="200px"
	 viewBox="0 0 200 200" enable-background="new 0 0 200 200" xml:space="preserve">
<metadata>
	<sfw  xmlns="&ns_sfw;">
		<slices></slices>
		<sliceSourceBounds  width="167.441" height="177.818" y="206.68" x="337.259" bottomLeftOrigin="true"></sliceSourceBounds>
	</sfw>
</metadata>
<g id="Layer_1_1_" display="none">
	<g display="inline">
		<path fill="#FFFFFF" d="M150.632,42.539V24.18c0-6.172-5.006-11.178-11.18-11.178H61.989c-6.174,0-11.176,5.006-11.176,11.178
			v6.156c-0.006,0.069-0.021,0.134-0.021,0.204v130.5v16.503v2.1c0,6.178,5.003,11.178,11.175,11.178h77.465
			c6.172,0,11.18-5,11.18-11.178v-20.104l-0.063,0.001V42.535L150.632,42.539z M146.05,42.663v114.231H55.293V42.663H146.05z"/>
		<g>
			<polygon fill="#FFFFFF" points="96.813,89.629 92.856,90.974 95.472,94.577 93.456,96.027 90.873,92.422 88.224,96.027 
				86.212,94.577 88.863,90.936 84.938,89.701 85.679,87.367 89.64,88.604 89.64,84.54 92.112,84.54 92.112,88.639 96.07,87.297 			
				"/>
			<path fill="#FFFFFF" d="M96.267,107.21H85.485c-0.828,0-1.5-0.671-1.5-1.5s0.672-1.5,1.5-1.5h10.781c0.828,0,1.5,0.671,1.5,1.5
				S97.095,107.21,96.267,107.21z"/>
		</g>
		<g>
			<polygon fill="#FFFFFF" points="76.487,89.629 72.531,90.974 75.146,94.577 73.13,96.027 70.548,92.422 67.897,96.027 
				65.886,94.577 68.536,90.936 64.61,89.701 65.354,87.367 69.313,88.604 69.313,84.54 71.786,84.54 71.786,88.639 75.743,87.297 
							"/>
			<path fill="#FFFFFF" d="M75.94,107.21H65.159c-0.829,0-1.5-0.671-1.5-1.5s0.671-1.5,1.5-1.5H75.94c0.828,0,1.5,0.671,1.5,1.5
				S76.769,107.21,75.94,107.21z"/>
		</g>
		<g>
			<polygon fill="#FFFFFF" points="117.139,89.629 113.18,90.974 115.795,94.577 113.779,96.027 111.201,92.422 108.548,96.027 
				106.535,94.577 109.188,90.936 105.264,89.701 106.005,87.367 109.963,88.604 109.963,84.54 112.438,84.54 112.438,88.639 
				116.396,87.297 			"/>
			<path fill="#FFFFFF" d="M116.59,107.21h-10.777c-0.828,0-1.5-0.671-1.5-1.5s0.672-1.5,1.5-1.5h10.777c0.829,0,1.5,0.671,1.5,1.5
				S117.419,107.21,116.59,107.21z"/>
		</g>
		<g>
			<polygon fill="#FFFFFF" points="137.465,89.629 133.507,90.974 136.122,94.577 134.107,96.027 131.529,92.422 128.875,96.027 
				126.861,94.577 129.516,90.936 125.591,89.701 126.332,87.367 130.29,88.604 130.29,84.54 132.766,84.54 132.766,88.639 
				136.727,87.297 			"/>
			<path fill="#FFFFFF" d="M137.223,107.21h-10.779c-0.83,0-1.5-0.671-1.5-1.5s0.67-1.5,1.5-1.5h10.779c0.827,0,1.5,0.671,1.5,1.5
				S138.05,107.21,137.223,107.21z"/>
		</g>
		<g>
			<path fill="#166BCF" d="M111.566,176.869H89.858c-1.656,0-3-1.344-3-3s1.344-3,3-3h21.708c1.656,0,3,1.344,3,3
				S113.225,176.869,111.566,176.869z"/>
		</g>
	</g>
	<path display="inline" fill="#166BCF" d="M105.174,31.208h-8.921c-1.656,0-3-1.343-3-3s1.344-3,3-3h8.921c1.657,0,3,1.343,3,3
		S106.831,31.208,105.174,31.208z"/>
</g>
<path fill="#FFFFFF" d="M180.121,88.724l-67.832-61.729c-6.494-5.912-17.125-5.912-23.619,0L20.836,88.724
	c-6.494,5.914-5.076,10.748,3.154,10.748h13.107v80.191h19.15h20.416V134.64c0-13.125,10.684-23.809,23.813-23.809
	c13.131,0,23.814,10.684,23.814,23.809v45.023h20.42h19.15V99.472h13.107C185.199,99.472,186.617,94.638,180.121,88.724z"/>
</svg>
