<?xml version="1.0" encoding="utf-8"?>
<!-- Generator: Adobe Illustrator 16.0.0, SVG Export Plug-In . SVG Version: 6.00 Build 0)  -->
<!DOCTYPE svg PUBLIC "-//W3C//DTD SVG 1.1//EN" "http://www.w3.org/Graphics/SVG/1.1/DTD/svg11.dtd">
<svg version="1.1" id="레이어_1" xmlns="http://www.w3.org/2000/svg" xmlns:xlink="http://www.w3.org/1999/xlink" x="0px"
	 y="0px" width="92px" height="37px" viewBox="0 0 92 37" enable-background="new 0 0 92 37" xml:space="preserve">
<g>
	<g>
		<g>
			<g>
				<g>
					<g>
						<g>
							<path fill="#003668" d="M27.806,17.709c-3.016-2.051-6.878-1.214-8.905,1.868c-1.693,2.577-4.25,2.895-5.241,2.895
								c-3.224,0-5.434-2.27-6.086-4.617H7.573c-0.008-0.023-0.012-0.042-0.019-0.065c-0.006-0.026-0.015-0.052-0.021-0.08
								c-0.257-0.979-0.321-1.448-0.321-2.489c0-5.615,5.761-11.868,14.059-11.868c8.498,0,13.358,6.47,14.612,10.064
								c-0.022-0.063-0.042-0.127-0.064-0.19C33.409,6.194,26.742,1.139,18.892,1.139C9.012,1.139,1,9.149,1,19.031
								c0,8.834,6.371,16.395,15.207,16.395c7.048,0,11.785-3.952,13.958-9.397C31.357,23.05,30.513,19.548,27.806,17.709z"/>
						</g>
						<g>
							<path fill="#E6002D" d="M35.995,13.766c-1.043-3.505-5.942-10.413-14.723-10.413c-8.298,0-14.059,6.253-14.059,11.868
								c0,1.041,0.064,1.51,0.321,2.489c-0.108-0.429-0.165-0.857-0.165-1.276c0-5.847,5.856-9.899,11.875-9.899
								c8.148,0,14.752,6.604,14.752,14.752c0,6.386-3.676,11.914-9.016,14.568l0.002,0.007c6.882-2.494,11.799-9.088,11.799-16.83
								C36.782,17.199,36.537,15.584,35.995,13.766z"/>
						</g>
					</g>
				</g>
			</g>
		</g>
	</g>
	<g>
		<path fill="#575756" d="M48.687,23.573V19.13h1.684v4.443h2.389V19.13h1.698v4.443h4.251v1.553H45.56v-1.553H48.687z
			 M55.868,21.054v-6.862h-9.251v-1.586H57.65v8.449H55.868z"/>
		<path fill="#575756" d="M73.715,21.809v4.41h-1.779v-2.888h-9.588v-1.522h2.276l0.016-1.667h-3.015v-1.541h13.148v1.541h-3.03
			v1.667H73.715z M71.728,14.816c0,0.45-0.096,0.873-0.289,1.268c-0.193,0.396-0.444,0.749-0.753,1.058
			c-0.321,0.29-0.694,0.521-1.123,0.698c-0.428,0.175-0.883,0.264-1.362,0.264c-0.481,0-0.938-0.088-1.371-0.264
			c-0.434-0.177-0.811-0.408-1.131-0.698c-0.31-0.309-0.561-0.663-0.753-1.058c-0.194-0.395-0.29-0.818-0.29-1.268
			c0-0.448,0.096-0.87,0.29-1.267c0.192-0.396,0.443-0.749,0.753-1.058c0.32-0.3,0.697-0.538,1.131-0.713
			c0.433-0.177,0.89-0.265,1.371-0.265c0.479,0,0.935,0.088,1.362,0.265c0.429,0.175,0.802,0.413,1.123,0.713
			c0.309,0.309,0.56,0.662,0.753,1.058C71.632,13.946,71.728,14.368,71.728,14.816z M66.261,21.809h3.846v-1.667h-3.83
			L66.261,21.809z M69.98,14.816c0-0.481-0.174-0.889-0.521-1.227c-0.348-0.335-0.768-0.504-1.259-0.504
			c-0.492,0-0.914,0.169-1.268,0.504c-0.353,0.337-0.529,0.746-0.529,1.227c0,0.482,0.177,0.894,0.529,1.235
			c0.354,0.343,0.775,0.512,1.268,0.512c0.491,0,0.911-0.169,1.259-0.512C69.807,15.71,69.98,15.298,69.98,14.816z"/>
		<path fill="#575756" d="M77.852,20.918H91v1.568h-5.693v3.688h-1.778v-3.688h-5.677V20.918z M80.658,13.925h7.52v-1.812h1.765
			v6.878H78.909v-6.878h1.749V13.925z M88.178,15.464h-7.52v1.974h7.52V15.464z"/>
	</g>
</g>
</svg>
