<svg xmlns="http://www.w3.org/2000/svg" width="60" height="60"><path fill="#737A8B" d="M25.574 40.906c-4.031 0-7.822-1.57-10.672-4.422-2.851-2.85-4.42-6.64-4.42-10.672s1.57-7.822 4.421-10.673 6.641-4.42 10.672-4.42 7.821 1.57 10.672 4.42 4.421 6.641 4.421 10.673-1.57 7.822-4.421 10.672a14.993 14.993 0 01-10.673 4.422zm0-27.187c-3.23 0-6.267 1.258-8.551 3.542s-3.542 5.321-3.542 8.552 1.258 6.268 3.542 8.551c2.284 2.284 5.321 3.543 8.551 3.543s6.267-1.259 8.551-3.543c2.284-2.283 3.542-5.32 3.542-8.551s-1.258-6.268-3.542-8.552a12.014 12.014 0 00-8.551-3.542z"/><path fill="#737A8B" d="M47.921 48.825c-.367 0-.735-.134-1.024-.404L34.161 36.52a1.5 1.5 0 112.049-2.191L48.945 46.23a1.5 1.5 0 01-1.024 2.595z"/></svg>