<?xml version="1.0" encoding="utf-8"?>
<!-- Generator: Adobe Illustrator 16.0.0, SVG Export Plug-In . SVG Version: 6.00 Build 0)  -->
<!DOCTYPE svg PUBLIC "-//W3C//DTD SVG 1.1//EN" "http://www.w3.org/Graphics/SVG/1.1/DTD/svg11.dtd">
<svg version="1.1" id="레이어_1" xmlns="http://www.w3.org/2000/svg" xmlns:xlink="http://www.w3.org/1999/xlink" x="0px"
	 y="0px" width="90px" height="90px" viewBox="0 0 90 90" enable-background="new 0 0 90 90" xml:space="preserve">
<path fill="#E5E5E5" d="M21.633,82.685c1.813,0.613,3.874-0.063,4.931-1.76c1.23-1.976,0.626-4.58-1.35-5.812
	c-0.249-0.154-0.509-0.279-0.772-0.377C8.722,63.826,4.15,42.311,14.375,25.892C24.923,8.957,47.282,3.756,64.221,14.305
	c16.938,10.549,22.132,32.911,11.584,49.846c-2.553,4.099-5.823,7.579-9.719,10.348c-0.486,0.323-0.915,0.745-1.244,1.272
	c-1.232,1.979-0.627,4.581,1.351,5.813c1.742,1.085,3.963,0.743,5.312-0.7c4.544-3.345,8.381-7.478,11.394-12.315
	C95.882,47.72,89.485,20.197,68.637,7.213S20.265,0.626,7.281,21.475C-5.703,42.323,0.694,69.846,21.542,82.83L21.633,82.685z"/>
<circle fill="#FE8633" cx="45.001" cy="79.389" r="5.845"/>
<g>
	<path fill="#FE8633" d="M49.553,58.803c0,2.515-2.038,4.553-4.553,4.553l0,0c-2.515,0-4.553-2.038-4.553-4.553V27.036
		c0-2.514,2.038-4.552,4.553-4.552l0,0c2.515,0,4.553,2.038,4.553,4.552V58.803z"/>
	<path fill="#FE8633" d="M45,63.855c-2.786,0-5.053-2.267-5.053-5.053V27.036c0-2.786,2.267-5.052,5.053-5.052
		s5.053,2.267,5.053,5.052v31.767C50.053,61.589,47.786,63.855,45,63.855z M45,22.984c-2.235,0-4.053,1.818-4.053,4.052v31.767
		c0,2.234,1.818,4.053,4.053,4.053c2.234,0,4.053-1.818,4.053-4.053V27.036C49.053,24.802,47.234,22.984,45,22.984z"/>
</g>
</svg>
