<?xml version="1.0" encoding="utf-8"?>
<!-- Generator: Adobe Illustrator 16.0.0, SVG Export Plug-In . SVG Version: 6.00 Build 0)  -->
<!DOCTYPE svg PUBLIC "-//W3C//DTD SVG 1.1//EN" "http://www.w3.org/Graphics/SVG/1.1/DTD/svg11.dtd">
<svg version="1.1" id="레이어_1" xmlns="http://www.w3.org/2000/svg" xmlns:xlink="http://www.w3.org/1999/xlink" x="0px"
	 y="0px" width="90px" height="90px" viewBox="0 0 90 90" enable-background="new 0 0 90 90" xml:space="preserve">
<polyline fill="#4FB7F7" points="44.777,58.846 85.497,18.127 79.589,12.217 40.399,51.406 27.199,38.205 21.29,44.114 
	35.63,58.453 "/>
<path fill="#E5E5E5" d="M89.46,45.021c-0.438-1.863-2.101-3.255-4.1-3.255c-2.328,0-4.219,1.89-4.219,4.219
	c0,0.293,0.031,0.579,0.087,0.854c-0.95,19.111-16.797,34.366-36.139,34.366c-19.952,0-36.186-16.231-36.186-36.185
	S25.138,8.836,45.09,8.836c4.829,0,9.512,0.936,13.922,2.779c0.531,0.242,1.116,0.383,1.737,0.383c2.332,0,4.22-1.889,4.22-4.219
	c0-2.052-1.464-3.757-3.403-4.138C56.325,1.552,50.789,0.48,45.09,0.48c-24.561,0-44.542,19.98-44.542,44.541
	S20.529,89.563,45.09,89.563s44.541-19.981,44.541-44.542H89.46z"/>
<circle fill="#4FB7F7" cx="82.314" cy="15.514" r="4.22"/>
<circle fill="#4FB7F7" cx="24.418" cy="41.298" r="4.22"/>
<path fill="#4FB7F7" d="M46.694,55.754c-0.477,2.813-3.424,4.851-6.103,4.851c-2.68,0-5.946-2.173-5.946-4.851"/>
</svg>
