<?xml version="1.0" encoding="utf-8"?>
<!-- Generator: Adobe Illustrator 16.0.3, SVG Export Plug-In . SVG Version: 6.00 Build 0)  -->
<!DOCTYPE svg PUBLIC "-//W3C//DTD SVG 1.1//EN" "http://www.w3.org/Graphics/SVG/1.1/DTD/svg11.dtd" [
	<!ENTITY ns_extend "http://ns.adobe.com/Extensibility/1.0/">
	<!ENTITY ns_ai "http://ns.adobe.com/AdobeIllustrator/10.0/">
	<!ENTITY ns_graphs "http://ns.adobe.com/Graphs/1.0/">
	<!ENTITY ns_vars "http://ns.adobe.com/Variables/1.0/">
	<!ENTITY ns_imrep "http://ns.adobe.com/ImageReplacement/1.0/">
	<!ENTITY ns_sfw "http://ns.adobe.com/SaveForWeb/1.0/">
	<!ENTITY ns_custom "http://ns.adobe.com/GenericCustomNamespace/1.0/">
	<!ENTITY ns_adobe_xpath "http://ns.adobe.com/XPath/1.0/">
]>
<svg version="1.1" id="레이어_1" xmlns:x="&ns_extend;" xmlns:i="&ns_ai;" xmlns:graph="&ns_graphs;"
	 xmlns="http://www.w3.org/2000/svg" xmlns:xlink="http://www.w3.org/1999/xlink" x="0px" y="0px" width="40px" height="40px"
	 viewBox="0 0 40 40" enable-background="new 0 0 40 40" xml:space="preserve">
<metadata>
	<sfw  xmlns="&ns_sfw;">
		<slices></slices>
		<sliceSourceBounds  width="39" height="39" y="16" x="15" bottomLeftOrigin="true"></sliceSourceBounds>
	</sfw>
</metadata>
<circle fill="#F9C900" cx="20" cy="20" r="19.5"/>
<g>
	<path fill="#FFFFFF" stroke="#FFFFFF" stroke-width="0.5" stroke-miterlimit="10" d="M7.268,23.576h8.043v1.164
		c0,0.492,0.255,0.932,0.68,1.178c0.213,0.119,0.445,0.18,0.676,0.18c0.237,0,0.472-0.061,0.685-0.188l6.956-4.696
		c0.42-0.246,0.67-0.681,0.67-1.166c0-0.488-0.25-0.925-0.67-1.172l-6.956-4.693c-0.422-0.248-0.932-0.253-1.36-0.007
		c-0.425,0.244-0.68,0.685-0.68,1.178v1.167H7.268c-0.901,0-1.632,0.73-1.632,1.63v3.792C5.635,22.842,6.367,23.576,7.268,23.576z
		 M7.268,22.213C7.12,22.213,7,22.092,7,21.943v-3.792c0-0.148,0.12-0.27,0.268-0.27h9.407v-2.528l6.941,4.698l-6.953,4.682
		l0.012-2.521H7.268z"/>
	<path fill="#FFFFFF" stroke="#FFFFFF" stroke-width="0.5" stroke-miterlimit="10" d="M29.314,12.519
		c0-1.467,0.455-3.904-1.206-4.646c-0.628-0.281-1.454-0.178-2.126-0.178c-1.307,0-2.614,0-3.92,0c-2.671,0-5.375-0.116-8.044,0
		c-1.489,0.068-1.844,1.198-1.844,2.458c0,1.343,0,2.688,0,4.03c0,0.878,1.362,0.878,1.362,0c0-1.01,0-2.02,0-3.032
		c0-0.642-0.297-1.891,0.521-2.092c0.678-0.164,1.604,0,2.296,0c1.322,0,2.646,0,3.966,0c2.204,0,4.421-0.074,6.623,0
		c0.577,0.02,0.966,0.206,1.01,0.843c0.04,0.608,0,1.231,0,1.839c0,5.04,0,10.077,0,15.114c0,0.88,0,1.758,0,2.637
		c0,0.438,0.129,1.191-0.325,1.454c-0.44,0.255-1.299,0.089-1.77,0.089c-1.203,0-2.401,0-3.605,0c-2.632,0-5.267,0-7.9,0
		c-0.968,0-0.815-0.794-0.815-1.56c0-1.188,0-2.376,0-3.563c0-0.877-1.362-0.881-1.362,0c0,1.188,0,2.376,0,3.563
		c0,1.21-0.035,2.647,1.507,2.896c0.631,0.102,1.314,0.027,1.949,0.027c1.369,0,2.74,0,4.109,0c2.448,0,4.908,0.063,7.355,0
		c1.218-0.033,2.153-0.751,2.22-2.025c0.025-0.48,0-0.969,0-1.449C29.314,23.45,29.314,17.984,29.314,12.519z"/>
</g>
</svg>
