<?xml version="1.0" encoding="utf-8"?>
<!-- Generator: Adobe Illustrator 16.0.0, SVG Export Plug-In . SVG Version: 6.00 Build 0)  -->
<!DOCTYPE svg PUBLIC "-//W3C//DTD SVG 1.1//EN" "http://www.w3.org/Graphics/SVG/1.1/DTD/svg11.dtd">
<svg version="1.1" id="레이어_1" xmlns="http://www.w3.org/2000/svg" xmlns:xlink="http://www.w3.org/1999/xlink" x="0px"
	 y="0px" width="40px" height="40px" viewBox="0 0 40 40" enable-background="new 0 0 40 40" xml:space="preserve">
<g>
	<circle fill="#F9C900" cx="20" cy="20" r="19.5"/>
	<g>
		<path fill="#FFFFFF" d="M29.344,31.142L29.344,31.142c-0.234,0-0.476-0.061-0.737-0.185L8.36,21.33
			c-0.993-0.475-0.955-1.163-0.893-1.437c0.062-0.272,0.32-0.905,1.389-0.905h14.003c0.874,0,1.864,0.606,2.354,1.44l5.022,8.576
			c0.432,0.735,0.313,1.252,0.14,1.556C30.166,30.924,29.78,31.142,29.344,31.142z M12.414,21.014l14.961,7.114l-3.91-6.675
			c-0.142-0.241-0.483-0.433-0.607-0.439H12.414z"/>
		<path fill="#FFFFFF" d="M22.86,21.014C22.859,21.014,22.859,21.014,22.86,21.014H8.856c-1.069,0-1.327-0.634-1.389-0.906
			c-0.062-0.274-0.099-0.963,0.893-1.435l20.248-9.629c0.743-0.355,1.446-0.164,1.769,0.398c0.174,0.303,0.291,0.819-0.141,1.555
			l-5.023,8.575C24.727,20.406,23.737,21.013,22.86,21.014z M12.415,18.988h10.442c0.125-0.008,0.467-0.197,0.606-0.438l3.911-6.675
			L12.415,18.988z"/>
	</g>
</g>
</svg>
