<svg xmlns="http://www.w3.org/2000/svg" width="70" height="70"><path fill="#D7D7D7" d="M64.327 39.998c.046-.057.093-.112.132-.174.035-.054.063-.11.091-.167.031-.06.063-.117.087-.18.025-.063.041-.126.06-.19.018-.061.036-.12.048-.184.013-.072.017-.146.022-.22.003-.047.014-.092.014-.14 0-.011-.003-.021-.003-.032-.002-.076-.014-.15-.023-.226-.007-.056-.01-.113-.021-.168-.014-.065-.038-.128-.06-.191-.02-.06-.034-.121-.059-.178-.024-.058-.06-.109-.09-.164-.032-.06-.061-.12-.099-.175-.032-.047-.072-.088-.109-.132-.048-.059-.094-.117-.147-.169l-.021-.025-16.545-15.487a2 2 0 00-2.734 2.92l12.848 12.028H8.22a2 2 0 000 4h54.56a2.053 2.053 0 00.781-.158c.014-.006.026-.016.04-.022a2.03 2.03 0 00.307-.169c.035-.024.066-.057.101-.083.072-.057.144-.113.207-.179l.024-.021c.033-.036.057-.077.087-.114z"/></svg>