<svg xmlns="http://www.w3.org/2000/svg" width="80" height="80"><g fill="#57C4FF"><path d="M40.516 78.533c-7.058 0-12.805-5.743-12.805-12.804a1.63 1.63 0 013.26 0c0 5.265 4.284 9.546 9.545 9.546 5.264 0 9.548-4.281 9.548-9.546a1.629 1.629 0 113.259 0c0 7.061-5.746 12.804-12.807 12.804"/><path d="M40.516 78.783c-7.199 0-13.055-5.855-13.055-13.054 0-1.036.844-1.88 1.882-1.88 1.036 0 1.878.844 1.878 1.88 0 5.126 4.17 9.296 9.295 9.296 5.127 0 9.298-4.17 9.298-9.296 0-1.036.843-1.88 1.878-1.88 1.037 0 1.881.844 1.881 1.88 0 7.199-5.857 13.054-13.057 13.054zM29.343 64.35c-.762 0-1.382.619-1.382 1.38 0 6.922 5.632 12.554 12.555 12.554 6.924 0 12.557-5.632 12.557-12.554a1.38 1.38 0 00-2.759 0c0 5.401-4.396 9.796-9.798 9.796-5.401 0-9.795-4.395-9.795-9.796a1.38 1.38 0 00-1.378-1.38z"/></g><g fill="#57C4FF"><path d="M58.221 61.324H22.813a5.884 5.884 0 01-5.876-5.877V34.358c0-13.106 10.57-23.781 23.564-23.801 13.01 0 23.599 10.583 23.599 23.588v21.302a5.885 5.885 0 01-5.879 5.877M40.503 13.819c-11.199.014-20.313 9.225-20.313 20.539v21.089a2.626 2.626 0 002.623 2.619h35.408a2.625 2.625 0 002.623-2.619V34.146c0-11.208-9.126-20.327-20.341-20.327"/><path d="M58.221 61.574H22.813a6.134 6.134 0 01-6.126-6.127V34.358c0-13.241 10.683-24.031 23.814-24.051 13.151 0 23.85 10.694 23.85 23.838v21.302a6.136 6.136 0 01-6.13 6.127zM40.5 10.808c-12.855.02-23.314 10.584-23.314 23.551v21.089a5.633 5.633 0 005.626 5.627H58.22a5.634 5.634 0 005.629-5.627V34.146C63.85 21.277 53.375 10.808 40.5 10.808zm17.721 47.508H22.813a2.874 2.874 0 01-2.873-2.869V34.358c0-11.449 9.225-20.775 20.563-20.789 11.354 0 20.59 9.23 20.59 20.576v21.302a2.873 2.873 0 01-2.872 2.869zM40.504 14.069c-11.064.014-20.064 9.116-20.064 20.289v21.089a2.373 2.373 0 002.373 2.369h35.408a2.374 2.374 0 002.373-2.369V34.146c0-11.07-9.013-20.077-20.09-20.077z"/></g><g fill="#57C4FF"><path d="M40.516 12.239c-.898 0-1.627-.73-1.627-1.629V3.242a1.628 1.628 0 113.256 0v7.368a1.629 1.629 0 01-1.629 1.629"/><path d="M40.516 12.489a1.88 1.88 0 01-1.877-1.879V3.242a1.88 1.88 0 011.877-1.879 1.88 1.88 0 011.879 1.879v7.368a1.88 1.88 0 01-1.879 1.879zm0-10.626a1.38 1.38 0 00-1.377 1.379v7.368c0 .76.618 1.379 1.377 1.379.76 0 1.379-.619 1.379-1.379V3.242a1.38 1.38 0 00-1.379-1.379z"/></g></svg>