<?xml version="1.0" encoding="utf-8"?>
<!-- Generator: Adobe Illustrator 16.0.3, SVG Export Plug-In . SVG Version: 6.00 Build 0)  -->
<!DOCTYPE svg PUBLIC "-//W3C//DTD SVG 1.1//EN" "http://www.w3.org/Graphics/SVG/1.1/DTD/svg11.dtd" [
	<!ENTITY ns_extend "http://ns.adobe.com/Extensibility/1.0/">
	<!ENTITY ns_ai "http://ns.adobe.com/AdobeIllustrator/10.0/">
	<!ENTITY ns_graphs "http://ns.adobe.com/Graphs/1.0/">
	<!ENTITY ns_vars "http://ns.adobe.com/Variables/1.0/">
	<!ENTITY ns_imrep "http://ns.adobe.com/ImageReplacement/1.0/">
	<!ENTITY ns_sfw "http://ns.adobe.com/SaveForWeb/1.0/">
	<!ENTITY ns_custom "http://ns.adobe.com/GenericCustomNamespace/1.0/">
	<!ENTITY ns_adobe_xpath "http://ns.adobe.com/XPath/1.0/">
]>
<svg version="1.1" id="레이어_1" xmlns:x="&ns_extend;" xmlns:i="&ns_ai;" xmlns:graph="&ns_graphs;"
	 xmlns="http://www.w3.org/2000/svg" xmlns:xlink="http://www.w3.org/1999/xlink" x="0px" y="0px" width="80px" height="80px"
	 viewBox="0 0 80 80" enable-background="new 0 0 80 80" xml:space="preserve">
<metadata>
	<sfw  xmlns="&ns_sfw;">
		<slices></slices>
		<sliceSourceBounds  height="70.556" width="70.459" x="-0.545" y="-0.179" bottomLeftOrigin="true"></sliceSourceBounds>
	</sfw>
</metadata>
<g>
	<path fill="#57C4FF" d="M75.394,40.59l-1.545-10.739c-0.146-1.026-1.097-1.789-2.13-1.69l-7.536,0.657
		c-1.205-2.574-2.794-4.917-4.733-6.975l3.383-6.759c0.467-0.939,0.119-2.082-0.79-2.6l-9.416-5.391
		c-0.883-0.508-2.088-0.215-2.644,0.639l-4.118,6.338c-2.139-0.49-4.334-0.71-6.541-0.662l-2.76-7.035
		c-0.377-0.959-1.485-1.477-2.46-1.155l-10.31,3.389c-0.995,0.329-1.562,1.379-1.292,2.391l1.953,7.299
		c-2.312,1.627-4.337,3.602-6.033,5.88l-7.246-2.155c-0.984-0.3-2.083,0.26-2.428,1.226L5.073,33.458
		c-0.355,0.986,0.122,2.08,1.087,2.491l6.958,2.953c-0.143,2.825,0.163,5.64,0.911,8.381l-6.157,4.382
		c-0.855,0.607-1.087,1.778-0.528,2.666l5.78,9.183c0.544,0.858,1.736,1.169,2.635,0.677l6.616-3.668
		c2.115,1.82,4.572,3.342,7.164,4.435l-0.342,7.559c-0.045,1.049,0.736,1.952,1.777,2.056l10.799,1.097
		c0.063,0.007,0.132,0.011,0.199,0.011c0.963,0,1.802-0.717,1.952-1.668l1.185-7.472c1.099-0.216,2.167-0.495,3.182-0.831
		c1.633-0.537,3.221-1.233,4.726-2.074l5.741,4.915c0.767,0.654,2.02,0.59,2.714-0.137l7.507-7.831
		c0.727-0.754,0.737-1.947,0.022-2.72l-5.155-5.529c1.281-2.531,2.146-5.226,2.576-8.024l7.402-1.496
		C74.855,42.605,75.545,41.629,75.394,40.59z M62.667,42.455c-0.321,3.257-1.315,6.353-2.956,9.202
		c-0.433,0.759-0.324,1.696,0.27,2.333l4.85,5.203l-4.921,5.131l-5.397-4.622c-0.642-0.549-1.625-0.62-2.344-0.169
		c-1.602,1.014-3.321,1.826-5.114,2.415c-1.258,0.416-2.589,0.725-3.959,0.919c-0.865,0.125-1.537,0.789-1.674,1.651l-1.112,7.022
		l-7.073-0.717l0.318-7.104c0.041-0.864-0.5-1.668-1.311-1.954c-3.051-1.09-5.89-2.849-8.212-5.087
		c-0.611-0.589-1.585-0.719-2.334-0.308l-6.219,3.448l-3.786-6.017l5.79-4.121c0.708-0.501,1.006-1.393,0.706-2.309
		c-1.016-3.089-1.359-6.296-1.019-9.533c0.09-0.871-0.39-1.685-1.194-2.025l-6.546-2.779l2.409-6.688l6.817,2.027
		c0.824,0.247,1.743-0.088,2.214-0.801c1.819-2.743,4.146-5.01,6.915-6.736c0.742-0.464,1.09-1.344,0.865-2.192l-1.84-6.865
		l6.752-2.221l2.597,6.618c0.298,0.75,1.039,1.253,1.845,1.253l0.151-0.006c2.703-0.208,5.447,0.067,8.043,0.816
		c0.831,0.239,1.747-0.102,2.21-0.822l3.875-5.962l6.172,3.532l-3.181,6.354c-0.392,0.785-0.229,1.717,0.405,2.319
		c2.364,2.247,4.189,4.935,5.423,7.991c0.322,0.793,1.165,1.311,2.007,1.229l7.089-0.618l1.014,7.035l-6.964,1.407
		C63.388,40.88,62.753,41.581,62.667,42.455z"/>
	<path fill="#57C4FF" d="M39.864,24.676c-1.616,0-3.217,0.258-4.761,0.766c-3.855,1.268-6.988,3.967-8.822,7.601
		s-2.146,7.757-0.876,11.613c2.061,6.262,7.869,10.469,14.454,10.469c1.617,0,3.219-0.258,4.759-0.766
		c3.862-1.271,6.998-3.97,8.83-7.598c1.831-3.63,2.14-7.755,0.869-11.617C52.259,28.882,46.451,24.676,39.864,24.676z
		 M39.858,51.166c-4.872,0-9.169-3.114-10.695-7.749c-0.938-2.853-0.708-5.903,0.649-8.591c1.357-2.688,3.675-4.685,6.528-5.623
		c1.144-0.377,2.33-0.569,3.524-0.569c4.872,0,9.169,3.114,10.692,7.749c0.94,2.854,0.712,5.907-0.644,8.595
		c-1.354,2.684-3.676,4.68-6.535,5.621C42.236,50.975,41.052,51.166,39.858,51.166z"/>
</g>
</svg>
