<svg xmlns="http://www.w3.org/2000/svg" width="80" height="80"><g fill="#57C4FF"><path d="M40.412 72.678L19.656 51.926C8.214 40.48 8.214 21.858 19.655 10.413c5.546-5.543 12.918-8.596 20.758-8.596s15.211 3.053 20.754 8.596c11.443 11.445 11.443 30.067 0 41.513L40.412 72.678zm.001-67.245c-6.874 0-13.338 2.677-18.2 7.537-10.031 10.034-10.031 26.364 0 36.399l18.199 18.195L58.61 49.369c10.033-10.036 10.033-26.363 0-36.399-4.86-4.86-11.323-7.537-18.197-7.537z"/><path d="M40.412 42.002c-6.835 0-12.397-5.561-12.397-12.396 0-6.834 5.562-12.394 12.397-12.394s12.396 5.56 12.396 12.394c.001 6.835-5.561 12.396-12.396 12.396zm0-21.174c-4.842 0-8.781 3.938-8.781 8.778 0 4.842 3.939 8.781 8.781 8.781s8.781-3.939 8.781-8.781c0-4.84-3.939-8.778-8.781-8.778zM21.882 75.189h37.06v3.616h-37.06z"/></g></svg>