<?xml version="1.0" encoding="utf-8"?>
<!-- Generator: Adobe Illustrator 16.0.0, SVG Export Plug-In . SVG Version: 6.00 Build 0)  -->
<!DOCTYPE svg PUBLIC "-//W3C//DTD SVG 1.1//EN" "http://www.w3.org/Graphics/SVG/1.1/DTD/svg11.dtd">
<svg version="1.1" id="레이어_1" xmlns="http://www.w3.org/2000/svg" xmlns:xlink="http://www.w3.org/1999/xlink" x="0px"
	 y="0px" width="80px" height="80px" viewBox="0 0 80 80" enable-background="new 0 0 80 80" xml:space="preserve">
<g>
	<path fill="#57C4FF" d="M58.996,53.08l-1.983-3.054c0.043-0.029,4.841-3.242,5.333-8.286c0.339-3.488-1.433-7.166-5.266-10.931
		l2.552-2.598c4.67,4.587,6.802,9.271,6.335,13.919C65.283,48.923,59.254,52.914,58.996,53.08z"/>
	<path fill="#57C4FF" d="M65.251,60.127l-1.784-3.176c0.337-0.191,8.371-4.886,9.396-15.442c-0.003-0.019,0.304-13.584-9.138-17.917
		l1.52-3.311c11.657,5.35,11.272,20.81,11.25,21.465C75.274,54.362,65.659,59.898,65.251,60.127z"/>
	<path fill="#57C4FF" d="M43.321,67.104c-0.819,0-1.653-0.267-2.482-0.79L22.272,56.01c-1.566-0.987-4.395-1.807-6.144-1.809H9.287
		c-3.104,0-5.628-2.525-5.628-5.629V31.108c0-3.104,2.525-5.63,5.628-5.63l5.084-0.009c0.036,0.001,0.196,0,0.38-0.001h2.217
		c1.764,0,4.646-0.783,6.17-1.674l17.687-10.368c0.8-0.469,1.605-0.706,2.394-0.706c2.136,0,3.631,1.709,3.634,4.157v46.123
		C46.853,65.818,45.021,67.104,43.321,67.104z M43.321,63.461v1.821V63.461L43.321,63.461L43.321,63.461z M17.432,29.115
		c-0.031,0-0.062,0.001-0.093,0.001L9.288,29.12c-1.096,0-1.987,0.892-1.987,1.988v17.464c0,1.096,0.891,1.986,1.986,1.986h6.844
		c2.433,0.002,5.946,1.021,8,2.319l18.566,10.304c0.214,0.133,0.367,0.205,0.472,0.242c0.022-0.096,0.042-0.234,0.042-0.423V16.88
		c0-0.318-0.058-0.486-0.088-0.553c-0.012,0.046-0.184,0.083-0.455,0.243L24.979,26.937c-1.795,1.051-4.658,1.905-6.957,2.121
		c-0.093,0.017-0.192,0.031-0.296,0.041v0.017H17.432z"/>
</g>
<rect x="16.604" y="27.289" fill="#57C4FF" width="3.643" height="25.091"/>
</svg>
