<?xml version="1.0" encoding="utf-8"?>
<!-- Generator: Adobe Illustrator 16.0.0, SVG Export Plug-In . SVG Version: 6.00 Build 0)  -->
<!DOCTYPE svg PUBLIC "-//W3C//DTD SVG 1.1//EN" "http://www.w3.org/Graphics/SVG/1.1/DTD/svg11.dtd">
<svg version="1.1" id="레이어_1" xmlns="http://www.w3.org/2000/svg" xmlns:xlink="http://www.w3.org/1999/xlink" x="0px"
	 y="0px" width="80px" height="80px" viewBox="0 0 80 80" enable-background="new 0 0 80 80" xml:space="preserve">
<g>
	<path fill="#57C4FF" d="M39.03,77.393c-12.257,0-22.228-9.974-22.228-22.231c0-6.16,2.56-12.021,7.056-16.226V18.101
		c0-8.367,6.807-15.174,15.172-15.174s15.172,6.807,15.172,15.174v20.834c4.497,4.209,7.059,10.069,7.059,16.226
		C61.261,67.419,51.287,77.393,39.03,77.393z M39.03,6.963c-6.141,0-11.137,4.997-11.137,11.138v22.662l-0.702,0.604
		c-4.038,3.47-6.354,8.498-6.354,13.795c0,10.033,8.162,18.195,18.193,18.195c10.034,0,18.196-8.162,18.196-18.195
		c0-5.294-2.317-10.32-6.357-13.796l-0.701-0.604v-22.66C50.167,11.959,45.171,6.963,39.03,6.963z"/>
	<rect x="37.012" y="22.914" fill="#57C4FF" width="4.036" height="24.179"/>
</g>
<path fill="#57C4FF" d="M39.031,63.629c-4.96,0-8.995-4.035-8.995-8.994c0-4.958,4.035-8.992,8.995-8.992
	c4.958,0,8.991,4.034,8.991,8.992C48.022,59.594,43.989,63.629,39.031,63.629z M39.031,49.679c-2.734,0-4.959,2.223-4.959,4.956
	c0,2.734,2.225,4.959,4.959,4.959c2.732,0,4.956-2.225,4.956-4.959C43.987,51.901,41.764,49.679,39.031,49.679z"/>
</svg>
