<?xml version="1.0" encoding="utf-8"?>
<!-- Generator: Adobe Illustrator 16.0.3, SVG Export Plug-In . SVG Version: 6.00 Build 0)  -->
<!DOCTYPE svg PUBLIC "-//W3C//DTD SVG 1.1//EN" "http://www.w3.org/Graphics/SVG/1.1/DTD/svg11.dtd" [
	<!ENTITY ns_extend "http://ns.adobe.com/Extensibility/1.0/">
	<!ENTITY ns_ai "http://ns.adobe.com/AdobeIllustrator/10.0/">
	<!ENTITY ns_graphs "http://ns.adobe.com/Graphs/1.0/">
	<!ENTITY ns_vars "http://ns.adobe.com/Variables/1.0/">
	<!ENTITY ns_imrep "http://ns.adobe.com/ImageReplacement/1.0/">
	<!ENTITY ns_sfw "http://ns.adobe.com/SaveForWeb/1.0/">
	<!ENTITY ns_custom "http://ns.adobe.com/GenericCustomNamespace/1.0/">
	<!ENTITY ns_adobe_xpath "http://ns.adobe.com/XPath/1.0/">
]>
<svg version="1.1" id="레이어_1" xmlns:x="&ns_extend;" xmlns:i="&ns_ai;" xmlns:graph="&ns_graphs;"
	 xmlns="http://www.w3.org/2000/svg" xmlns:xlink="http://www.w3.org/1999/xlink" x="0px" y="0px" width="80px" height="80px"
	 viewBox="0 0 80 80" enable-background="new 0 0 80 80" xml:space="preserve">
<metadata>
	<sfw  xmlns="&ns_sfw;">
		<slices></slices>
		<sliceSourceBounds  width="72.178" height="70.124" y="1.754" x="-0.766" bottomLeftOrigin="true"></sliceSourceBounds>
	</sfw>
</metadata>
<path fill="#57C4FF" d="M32.059,67.971h-8.046c-0.966,0-1.75-0.783-1.75-1.75V43.959c0-0.967,0.784-1.75,1.75-1.75h8.046
	c0.966,0,1.75,0.783,1.75,1.75v22.262C33.809,67.188,33.025,67.971,32.059,67.971z M25.763,64.471h4.546V45.709h-4.546V64.471z"/>
<path fill="#57C4FF" d="M45.073,67.971h-8.044c-0.966,0-1.75-0.783-1.75-1.75V36.71c0-0.966,0.784-1.75,1.75-1.75h8.044
	c0.967,0,1.75,0.784,1.75,1.75v29.511C46.823,67.188,46.04,67.971,45.073,67.971z M38.779,64.471h4.544V38.46h-4.544V64.471z"/>
<path fill="#57C4FF" d="M58.088,67.971h-8.042c-0.967,0-1.75-0.783-1.75-1.75V41.142c0-0.966,0.783-1.75,1.75-1.75h8.042
	c0.967,0,1.75,0.784,1.75,1.75v25.079C59.838,67.188,59.055,67.971,58.088,67.971z M51.796,64.471h4.542V42.892h-4.542V64.471z"/>
<g>
	<path fill="#57C4FF" d="M51.993,14.567H29.654c-0.966,0-1.75-0.784-1.75-1.75s0.784-1.75,1.75-1.75h22.339
		c0.967,0,1.75,0.784,1.75,1.75S52.96,14.567,51.993,14.567z"/>
	<path fill="#57C4FF" d="M75.162,29.356H6.484c-0.966,0-1.75-0.784-1.75-1.75v-8.567c0-0.535,0.055-1.074,0.164-1.604
		c0.099-0.496,0.255-1,0.461-1.492c0.208-0.484,0.452-0.936,0.733-1.356c0.285-0.419,0.609-0.811,0.972-1.177
		c0.381-0.381,0.781-0.711,1.197-0.987c0.405-0.276,0.864-0.526,1.348-0.73c0.471-0.199,0.97-0.354,1.483-0.463
		c0.542-0.109,1.081-0.162,1.619-0.162h4.63c0.966,0,1.75,0.784,1.75,1.75s-0.784,1.75-1.75,1.75h-4.63
		c-0.308,0-0.614,0.03-0.912,0.09c-0.278,0.059-0.564,0.148-0.831,0.26c-0.269,0.113-0.522,0.25-0.752,0.408
		c-0.24,0.16-0.46,0.342-0.671,0.553c-0.206,0.208-0.394,0.435-0.551,0.666C8.838,16.777,8.7,17.031,8.581,17.31
		c-0.111,0.265-0.198,0.544-0.253,0.82c-0.063,0.307-0.094,0.61-0.094,0.91v6.817h65.178v-6.817c0-0.303-0.031-0.605-0.092-0.898
		c-0.061-0.297-0.146-0.574-0.256-0.826c-0.117-0.285-0.25-0.531-0.418-0.78c-0.156-0.229-0.341-0.452-0.543-0.653
		c-0.209-0.212-0.428-0.393-0.66-0.549c-0.251-0.169-0.5-0.305-0.765-0.417c-0.265-0.11-0.553-0.2-0.852-0.263
		c-0.278-0.056-0.585-0.086-0.89-0.086h-4.632c-0.967,0-1.75-0.784-1.75-1.75s0.783-1.75,1.75-1.75h4.632
		c0.535,0,1.072,0.053,1.596,0.158c0.531,0.112,1.029,0.267,1.502,0.464c0.475,0.201,0.931,0.449,1.361,0.739
		c0.424,0.284,0.824,0.616,1.187,0.982c0.348,0.345,0.676,0.741,0.964,1.164c0.3,0.447,0.548,0.908,0.741,1.377
		c0.193,0.446,0.353,0.954,0.461,1.483c0.107,0.522,0.163,1.063,0.163,1.604v8.567C76.912,28.573,76.129,29.356,75.162,29.356z"/>
	<path fill="#57C4FF" d="M68.938,73.746H12.711c-0.532,0-1.072-0.056-1.608-0.166c-0.492-0.098-0.996-0.254-1.489-0.46
		c-0.491-0.207-0.952-0.458-1.374-0.747c-0.388-0.259-0.784-0.583-1.159-0.952c-0.379-0.384-0.703-0.776-0.981-1.186
		c-0.281-0.416-0.527-0.869-0.735-1.352c-0.212-0.507-0.367-1.011-0.469-1.516c-0.107-0.524-0.162-1.065-0.162-1.6V27.812
		c0-0.966,0.784-1.75,1.75-1.75h68.678c0.967,0,1.75,0.784,1.75,1.75v37.957c0,0.541-0.056,1.082-0.164,1.609
		c-0.109,0.528-0.268,1.036-0.471,1.507c-0.189,0.457-0.438,0.918-0.729,1.348c-0.292,0.428-0.619,0.824-0.977,1.18
		c-0.362,0.361-0.758,0.687-1.177,0.969c-0.426,0.289-0.883,0.538-1.354,0.736c-0.506,0.211-1.01,0.365-1.509,0.465
		C70.006,73.69,69.466,73.746,68.938,73.746z M8.234,29.562v36.207c0,0.3,0.031,0.604,0.092,0.904
		c0.057,0.284,0.145,0.566,0.26,0.843c0.115,0.266,0.255,0.526,0.411,0.757c0.156,0.229,0.344,0.457,0.556,0.672
		c0.2,0.196,0.424,0.381,0.647,0.53c0.246,0.168,0.499,0.305,0.768,0.419c0.275,0.115,0.555,0.202,0.829,0.257
		c0.313,0.064,0.617,0.096,0.913,0.096h56.227c0.293,0,0.597-0.031,0.901-0.095c0.283-0.056,0.566-0.144,0.851-0.262
		c0.254-0.107,0.502-0.243,0.747-0.409c0.238-0.16,0.461-0.344,0.665-0.547c0.201-0.2,0.387-0.425,0.551-0.667
		c0.157-0.232,0.294-0.484,0.402-0.746c0.118-0.274,0.204-0.553,0.266-0.85c0.061-0.296,0.092-0.599,0.092-0.902V29.562H8.234z"/>
</g>
<path fill="#57C4FF" d="M23.497,20.965c-2.662,0-4.828-2.165-4.828-4.826V8.45c0-2.662,2.166-4.828,4.828-4.828
	s4.828,2.166,4.828,4.828v7.688C28.325,18.8,26.159,20.965,23.497,20.965z M23.497,7.122c-0.732,0-1.328,0.596-1.328,1.328v7.688
	c0,0.731,0.596,1.326,1.328,1.326s1.328-0.595,1.328-1.326V8.45C24.825,7.718,24.229,7.122,23.497,7.122z"/>
<path fill="#57C4FF" d="M58.149,20.965c-2.663,0-4.829-2.165-4.829-4.826V8.45c0-2.662,2.166-4.828,4.829-4.828
	s4.829,2.166,4.829,4.828v7.688C62.979,18.8,60.813,20.965,58.149,20.965z M58.149,7.122c-0.732,0-1.329,0.596-1.329,1.328v7.688
	c0,0.731,0.597,1.326,1.329,1.326s1.329-0.595,1.329-1.326V8.45C59.479,7.718,58.882,7.122,58.149,7.122z"/>
</svg>
