<svg xmlns="http://www.w3.org/2000/svg" width="50" height="50"><g fill="#027DDC"><path d="M24.999 49.656c-8.214 0-14.896-6.684-14.896-14.898 0-4.064 1.663-7.936 4.59-10.742V10.651C14.693 4.967 19.317.343 25 .343s10.307 4.624 10.307 10.308v13.364a14.883 14.883 0 014.592 10.742c-.002 8.216-6.685 14.899-14.9 14.899zm0-45.812a6.815 6.815 0 00-6.807 6.808V24.79c0 .51-.223.995-.609 1.327a11.387 11.387 0 00-3.98 8.641c0 6.285 5.112 11.398 11.396 11.398 6.285 0 11.398-5.113 11.398-11.398 0-3.315-1.451-6.465-3.982-8.641a1.75 1.75 0 01-.609-1.327V10.651a6.815 6.815 0 00-6.807-6.807z"/><path d="M24.999 31.26a1.75 1.75 0 01-1.75-1.75V13.782a1.75 1.75 0 113.5 0V29.51a1.75 1.75 0 01-1.75 1.75z"/><path d="M25 40.703c-3.467 0-6.288-2.82-6.288-6.287s2.821-6.287 6.288-6.287c3.466 0 6.286 2.82 6.286 6.287s-2.82 6.287-6.286 6.287zm0-9.074c-1.537 0-2.788 1.25-2.788 2.787s1.251 2.787 2.788 2.787c1.536 0 2.786-1.25 2.786-2.787s-1.25-2.787-2.786-2.787z"/></g></svg>