<svg xmlns="http://www.w3.org/2000/svg" width="80" height="80"><g fill="#4782BB"><path d="M39.998 72.262a1.438 1.438 0 010-2.876c4.376 0 7.936-3.559 7.936-7.934a1.438 1.438 0 112.876 0c-.001 5.96-4.851 10.81-10.812 10.81z"/><path d="M39.998 72.262c-5.961 0-10.811-4.85-10.811-10.809a1.438 1.438 0 112.876 0c0 4.375 3.56 7.934 7.936 7.934a1.438 1.438 0 11-.001 2.875zM54.397 58.785H25.6a6.222 6.222 0 01-6.214-6.217V35.421c0-11.448 9.24-20.775 20.598-20.792 11.378 0 20.632 9.249 20.632 20.618v17.32a6.226 6.226 0 01-6.219 6.218zm-14.412-41.28c-9.772.014-17.725 8.052-17.725 17.917v17.147a3.344 3.344 0 003.339 3.342h28.798a3.346 3.346 0 003.343-3.342v-17.32c0-9.785-7.965-17.744-17.755-17.744z"/><path d="M39.998 17.586c-1.177 0-1.967-1.109-1.967-2.76v-4.71c0-1.755 1.06-2.378 1.967-2.378s1.967.623 1.967 2.378v4.71c0 1.651-.79 2.76-1.967 2.76z"/><g><path d="M14.503 49.357c-.298 0-.598-.092-.854-.283A12.339 12.339 0 018.675 39.2c0-3.742 1.673-7.231 4.59-9.574a1.437 1.437 0 111.8 2.242 9.363 9.363 0 00-3.515 7.333 9.325 9.325 0 003.81 7.563 1.44 1.44 0 01-.857 2.593z"/><path d="M10.124 54.186c-.298 0-.598-.092-.855-.283-4.661-3.459-7.444-8.982-7.444-14.774 0-5.597 2.506-10.82 6.873-14.33a1.437 1.437 0 111.801 2.241 15.437 15.437 0 00-5.8 12.089c0 4.96 2.29 9.503 6.282 12.466a1.437 1.437 0 01-.857 2.591zM65.496 49.357a1.438 1.438 0 01-.857-2.594 9.334 9.334 0 003.814-7.563 9.359 9.359 0 00-3.517-7.332 1.439 1.439 0 01-.222-2.021 1.439 1.439 0 012.021-.221 12.222 12.222 0 014.592 9.574c0 3.87-1.86 7.562-4.977 9.874a1.417 1.417 0 01-.854.283z"/><path d="M69.873 54.186c-.439 0-.873-.201-1.155-.582a1.435 1.435 0 01.298-2.01c3.994-2.965 6.285-7.508 6.285-12.466 0-4.722-2.113-9.128-5.799-12.089a1.439 1.439 0 011.801-2.241 18.297 18.297 0 016.873 14.33c0 5.792-2.784 11.313-7.447 14.774a1.426 1.426 0 01-.856.284z"/></g></g></svg>