<svg xmlns="http://www.w3.org/2000/svg" width="80" height="80"><g fill="#4782BB"><path d="M60.526 42.656c-6.181-9.131-15.294-10.838-15.681-10.906a1.293 1.293 0 00-.241-.021h-.352c4.101-2.629 6.839-7.321 6.839-12.661 0-8.208-6.471-14.885-14.426-14.885-7.957 0-14.43 6.678-14.43 14.885 0 5.34 2.738 10.032 6.841 12.661h-.741c-.092 0-.18.008-.271.026-.184.037-18.712 3.932-20.721 24.982a1.457 1.457 0 00-.006.132v17.557a1.394 1.394 0 002.788 0V56.938c1.773-18.231 16.72-22.057 18.358-22.421h15.981c.987.215 8.599 2.083 13.755 9.701a1.393 1.393 0 102.307-1.562zM25.021 19.069c0-6.671 5.224-12.1 11.645-12.1 6.419 0 11.64 5.428 11.64 12.1 0 6.676-5.221 12.107-11.64 12.107-6.42 0-11.645-5.431-11.645-12.107z"/><path d="M19.914 54.738c-.769 0-1.394.623-1.394 1.394v18.236a1.394 1.394 0 102.788 0V56.131a1.394 1.394 0 00-1.394-1.393z"/><g><path d="M70.185 45.463v27.483H48.031V45.463h22.154m.584-2.478h-23.32a1.897 1.897 0 00-1.894 1.894V73.53c0 1.042.848 1.894 1.894 1.894h23.32c1.042 0 1.894-.85 1.894-1.894V44.879a1.899 1.899 0 00-1.894-1.894z"/><path d="M61.292 55.197h-9.198a1.238 1.238 0 010-2.476h9.198a1.238 1.238 0 010 2.476zM66.121 60.48H52.094a1.237 1.237 0 010-2.475h14.027a1.238 1.238 0 010 2.475zM66.121 65.696H52.094a1.237 1.237 0 010-2.475h14.027a1.237 1.237 0 110 2.475z"/></g></g></svg>