<svg xmlns="http://www.w3.org/2000/svg" width="80" height="80"><path fill="#4782BB" d="M51.65 70.186a1.53 1.53 0 01-.756-.2l-24.405-13.91H4.476a1.527 1.527 0 01-1.526-1.527V25.454c0-.843.684-1.526 1.526-1.526h22.013l24.406-13.912a1.525 1.525 0 012.281 1.326V68.66a1.526 1.526 0 01-1.526 1.526zM6.002 53.023h20.891c.265 0 .525.068.755.199l22.475 12.811V13.968L27.648 26.779c-.23.131-.491.201-.755.201H6.002v26.043z"/><path fill="#2398E5" d="M61.424 54.046a1.526 1.526 0 01-1.078-2.605c6.305-6.31 6.305-16.574 0-22.881a1.526 1.526 0 112.158-2.158c7.494 7.496 7.496 19.696 0 27.196-.297.298-.69.448-1.08.448z"/><path fill="#4782BB" d="M67.727 60.351a1.524 1.524 0 01-1.08-2.605c4.74-4.739 7.352-11.042 7.352-17.746 0-6.703-2.611-13.004-7.352-17.742a1.526 1.526 0 112.158-2.158c5.318 5.314 8.246 12.382 8.246 19.9 0 7.52-2.928 14.588-8.246 19.904a1.522 1.522 0 01-1.078.447z"/><path fill="#4782BB" d="M61.424 54.046a1.526 1.526 0 01-1.078-2.605c6.305-6.31 6.305-16.574 0-22.881a1.526 1.526 0 112.158-2.158c7.494 7.496 7.496 19.696 0 27.196-.297.298-.69.448-1.08.448zM24.952 56.076a1.527 1.527 0 01-1.526-1.527V25.454a1.526 1.526 0 013.052 0v29.095c0 .844-.684 1.527-1.526 1.527z"/></svg>